<?xml version="1.0" encoding="UTF-8" standalone="no"?>
<svg width="261px" height="37px" viewBox="0 0 261 37" version="1.1" xmlns="http://www.w3.org/2000/svg" xmlns:xlink="http://www.w3.org/1999/xlink">
    <!-- Generator: Sketch 3.8.3 (29802) - http://www.bohemiancoding.com/sketch -->
    <title>logo</title>
    <desc>Created with Sketch.</desc>
    <defs></defs>
    <g id="Home" stroke="none" stroke-width="1" fill="none" fill-rule="evenodd">
        <g id="OPT-2" transform="translate(-62.000000, -24.000000)">
            <g id="Nav" transform="translate(62.000000, 24.000000)">
                <g id="pink_blue_logo_text">
                    <g id="logo">
                        <g id="Group">
                            <g transform="translate(52.000000, 7.000000)" id="Shape" fill="#FFFFFF">
                                <path d="M0,1.5 C0,1.2 0.3,0.9 0.6,0.9 L2.6,0.9 C2.9,0.9 3.2,1.2 3.2,1.5 L3.2,21.6 C3.2,21.9 2.9,22.2 2.6,22.2 L0.6,22.2 C0.3,22.2 0,21.9 0,21.6 L0,1.5 L0,1.5 Z"></path>
                                <path d="M12.1,1.1 C12.1,0.8 12.4,0.6 12.7,0.6 L13.5,0.6 L26.7,15.8 L26.7,15.8 L26.7,1.5 C26.7,1.2 26.9,0.9 27.3,0.9 L29.2,0.9 C29.5,0.9 29.8,1.2 29.8,1.5 L29.8,21.9 C29.8,22.2 29.5,22.4 29.2,22.4 L28.4,22.4 L15.2,6.8 L15.2,6.8 L15.2,21.6 C15.2,21.9 15,22.2 14.6,22.2 L12.7,22.2 C12.4,22.2 12.1,21.9 12.1,21.6 L12.1,1.1 L12.1,1.1 Z"></path>
                                <path d="M41.6,3.7 L36.7,3.7 C36.4,3.7 36.1,3.4 36.1,3.1 L36.1,1.5 C36.1,1.2 36.3,0.9 36.7,0.9 L49.8,0.9 C50.1,0.9 50.4,1.2 50.4,1.5 L50.4,3.2 C50.4,3.5 50.2,3.8 49.8,3.8 L44.9,3.8 L44.9,21.6 C44.9,21.9 44.6,22.2 44.3,22.2 L42.3,22.2 C42,22.2 41.7,21.9 41.7,21.6 L41.7,3.7 L41.6,3.7 Z"></path>
                                <path d="M56.6,1.5 C56.6,1.2 56.8,0.9 57.2,0.9 L65.5,0.9 C69.1,0.9 72.1,3.8 72.1,7.4 C72.1,10.2 70.2,12.5 67.6,13.6 L71.8,21.3 C72,21.7 71.8,22.2 71.3,22.2 L68.9,22.2 C68.7,22.2 68.5,22 68.4,21.9 L64.4,13.9 L59.8,13.9 L59.8,21.6 C59.8,21.9 59.5,22.2 59.2,22.2 L57.2,22.2 C56.9,22.2 56.6,21.9 56.6,21.6 L56.6,1.5 L56.6,1.5 Z M65.1,11.2 C67.1,11.2 68.8,9.5 68.8,7.4 C68.8,5.4 67.1,3.8 65.1,3.8 L59.7,3.8 L59.7,11.2 L65.1,11.2 L65.1,11.2 Z"></path>
                                <path d="M79.8,1.5 C79.8,1.2 80.1,0.9 80.4,0.9 L82.4,0.9 C82.7,0.9 83,1.2 83,1.5 L83,21.6 C83,21.9 82.7,22.2 82.4,22.2 L80.4,22.2 C80.1,22.2 79.8,21.9 79.8,21.6 L79.8,1.5 L79.8,1.5 Z"></path>
                                <path d="M101.3,0.6 C104.4,0.6 106.6,1.6 108.6,3.4 C108.9,3.6 108.9,4 108.6,4.3 L107.3,5.7 C107.1,6 106.8,6 106.5,5.7 C105.1,4.5 103.1,3.7 101.2,3.7 C96.9,3.7 93.6,7.3 93.6,11.6 C93.6,15.9 96.9,19.5 101.3,19.5 C103.5,19.5 105.1,18.6 106.5,17.5 C106.8,17.3 107,17.3 107.2,17.5 L108.6,18.9 C108.8,19.1 108.8,19.5 108.6,19.7 C106.5,21.7 103.9,22.6 101.2,22.6 C95.1,22.6 90.2,17.8 90.2,11.7 C90.3,5.5 95.2,0.6 101.3,0.6 L101.3,0.6 Z"></path>
                                <path d="M113.2,21.3 L122.5,0.9 C122.6,0.7 122.9,0.6 123,0.6 L123.3,0.6 C123.5,0.6 123.7,0.8 123.8,0.9 L133.1,21.3 C133.3,21.7 133,22.1 132.6,22.1 L130.7,22.1 C130.3,22.1 130.1,21.9 130,21.6 L128.1,17.4 L118.2,17.4 C117.6,18.8 117,20.2 116.3,21.6 C116.2,21.8 116,22.1 115.6,22.1 L113.7,22.1 C113.2,22.1 113,21.7 113.2,21.3 L113.2,21.3 Z M126.9,14.9 L123.2,6.6 L123,6.6 L119.3,14.9 L126.9,14.9 L126.9,14.9 Z"></path>
                                <path d="M141,3.7 L136,3.7 C135.7,3.7 135.4,3.4 135.4,3.1 L135.4,1.5 C135.4,1.2 135.6,0.9 136,0.9 L149.1,0.9 C149.4,0.9 149.7,1.2 149.7,1.5 L149.7,3.2 C149.7,3.5 149.5,3.8 149.1,3.8 L144.2,3.8 L144.2,21.6 C144.2,21.9 143.9,22.2 143.6,22.2 L141.6,22.2 C141.3,22.2 141,21.9 141,21.6 L141,3.7 L141,3.7 Z"></path>
                                <path d="M156,1.5 C156,1.2 156.2,0.9 156.6,0.9 L168.7,0.9 C169,0.9 169.3,1.2 169.3,1.5 L169.3,3.2 C169.3,3.5 169.1,3.8 168.7,3.8 L159.1,3.8 L159.1,10 L167.2,10 C167.5,10 167.8,10.3 167.8,10.6 L167.8,12.3 C167.8,12.6 167.5,12.9 167.2,12.9 L159.1,12.9 L159.1,19.4 L168.7,19.4 C169,19.4 169.3,19.7 169.3,20 L169.3,21.7 C169.3,22 169.1,22.3 168.7,22.3 L156.6,22.3 C156.3,22.3 156,22 156,21.7 L156,1.5 L156,1.5 Z"></path>
                                <path d="M176.9,1.5 C176.9,1.2 177.1,0.9 177.5,0.9 L179.5,0.9 C179.8,0.9 180.1,1.2 180.1,1.5 L180.1,19.4 L188.3,19.4 C188.6,19.4 188.9,19.7 188.9,20 L188.9,21.7 C188.9,22 188.7,22.3 188.3,22.3 L177.5,22.3 C177.2,22.3 176.9,22 176.9,21.7 L176.9,1.5 L176.9,1.5 Z"></path>
                                <path d="M197.7,11.9 L190.6,1.8 C190.4,1.4 190.6,0.9 191.1,0.9 L193.3,0.9 C193.5,0.9 193.7,1.1 193.8,1.2 L199.3,8.9 L204.8,1.2 C204.9,1.1 205.1,0.9 205.3,0.9 L207.6,0.9 C208.1,0.9 208.3,1.4 208.1,1.8 L200.9,11.9 L200.9,21.6 C200.9,21.9 200.6,22.2 200.3,22.2 L198.3,22.2 C198,22.2 197.7,21.9 197.7,21.6 L197.7,11.9 L197.7,11.9 Z"></path>
                            </g>
                            <g id="Shape" fill="#FF3C6A">
                                <path d="M32.2,29.8 C32.4,30 32.6,29.9 32.7,29.8 C35.1,26.7 36.6,22.8 36.6,18.5 C36.6,14.1 35.1,10.1 32.5,7 C32.4,6.8 32.1,6.8 32,7 L30.6,8.4 C30.5,8.5 30.5,8.7 30.6,8.9 C32.3,11.1 33.5,13.7 33.8,16.6 C33.8,16.7 33.7,16.8 33.6,16.8 L30.6,16.8 C30.5,16.8 30.4,16.7 30.4,16.6 C29.4,10.4 23.8,5.7 17.2,6.2 C11.2,6.8 6.4,11.6 6,17.6 C5.8,20.5 6.6,23.2 8.1,25.5 C8.2,25.7 8.5,25.7 8.7,25.5 L10.1,24.1 C10.2,24 10.2,23.8 10.1,23.7 C9,22 8.4,19.8 8.7,17.6 C9.2,13 13.1,9.3 17.7,9.1 C23.2,8.8 27.8,13.2 27.8,18.7 C27.8,23.4 24.5,27.2 20.1,28.1 C20,28.1 19.8,28 19.8,27.9 L19.8,24.8 C19.8,24.7 19.9,24.6 19.9,24.6 C22.5,23.9 24.3,21.5 24.3,18.7 C24.3,17.7 24.1,16.7 23.6,15.9 C23.5,15.8 23.4,15.8 23.3,15.9 L21.6,17.6 C21.5,17.7 21.4,17.9 21.5,18.1 C21.6,18.7 21.6,19.3 21.4,19.9 C21,21 20.1,21.8 19,22.1 C16.4,22.7 14.1,20.4 14.8,17.9 C15.1,16.8 16,15.8 17.1,15.5 C17.7,15.3 18.4,15.3 19,15.5 C19.2,15.5 19.4,15.5 19.5,15.4 L21.2,13.7 C21.3,13.6 21.3,13.5 21.2,13.4 C20.1,12.8 18.7,12.5 17.3,12.7 C14.7,13.1 12.6,15.2 12.2,17.8 C11.7,21.2 13.9,24.1 17,24.8 C17.1,24.8 17.2,24.9 17.2,25 L17.2,28.1 C17.2,28.2 17.1,28.3 17,28.3 C15.5,28.1 14.2,27.6 13,26.8 C12.9,26.7 12.7,26.7 12.5,26.8 L11,27.9 C10.8,28.1 10.9,28.3 11,28.5 C13,30 15.5,30.8 18.2,30.8 C24.6,30.8 29.8,25.9 30.4,19.7 C30.4,19.6 30.5,19.5 30.6,19.5 L33.5,19.5 C33.6,19.5 33.7,19.6 33.7,19.7 C33.5,22.7 32.3,25.6 30.6,27.9 C30.5,28 30.5,28.2 30.6,28.4 L32.2,29.8 L32.2,29.8 Z"></path>
                                <path d="M18.3,2.7 C21.8,2.7 25.1,3.9 27.7,5.9 C27.8,6 28,6 28.1,5.9 L29.5,4.5 C29.7,4.3 29.6,4.1 29.5,4 C26.4,1.6 22.5,0 18.3,0 C9,0 1.3,7.1 0.1,15.8 C0.1,16 0.2,16.2 0.5,16.2 L2.5,16.2 C2.7,16.2 2.8,16.1 2.9,15.9 C3.9,8.5 10.4,2.7 18.3,2.7 L18.3,2.7 Z"></path>
                                <path d="M28.4,30.8 C28.3,30.7 28.1,30.7 27.9,30.8 C25.2,32.9 21.9,34 18.2,34 C10.1,34 3.5,27.9 2.6,19.9 C2.6,19.7 2.4,19.6 2.2,19.6 L0.2,19.6 C0.2,19.6 0,19.8 0,20 C0.9,29.4 8.7,36.7 18.3,36.7 C22.7,36.7 26.7,35.2 29.8,32.7 C30,32.6 30,32.3 29.8,32.2 L28.4,30.8 L28.4,30.8 Z"></path>
                            </g>
                        </g>
                    </g>
                </g>
            </g>
        </g>
    </g>
</svg>